# xmcd
#
# Track frame offsets: 
#        150
#        15875
#        32475
#        46537
#        58725
#        72087
#        90275
#        106550
#        120625
#        137862
#        155812
#        169300
#        184237
#        197162
#        208850
#        222725
#
# Disc length: 3149 seconds
#
# Revision: 2
# Processed by: cddbd v1.5.2PL0 Copyright (c) Steve Scherf et al.
# Submitted via: ExactAudioCopyFreeDBPlugin 1.0
#
DISCID=dc0c4b10
DTITLE=蔡琴 - 醉人心弦
DYEAR=1900
DGENRE=Blues
TTITLE0=我有一段情
TTITLE1=未識綺羅香
TTITLE2=月光小夜曲
TTITLE3=今宵多珍重
TTITLE4=願嫁漢家郎
TTITLE5=明日之歌
TTITLE6=夢中人
TTITLE7=送別
TTITLE8=你的眼神
TTITLE9=恰似你的溫柔
TTITLE10=魂縈舊夢
TTITLE11=問白雲
TTITLE12=神秘女郎
TTITLE13=初戀
TTITLE14=戀痕
TTITLE15=扇子歌
EXTD=
EXTT0=
EXTT1=
EXTT2=
EXTT3=
EXTT4=
EXTT5=
EXTT6=
EXTT7=
EXTT8=
EXTT9=
EXTT10=
EXTT11=
EXTT12=
EXTT13=
EXTT14=
EXTT15=
PLAYORDER=
